<svg xmlns="http://www.w3.org/2000/svg" xmlns:xlink="http://www.w3.org/1999/xlink" width="1090" height="596" viewBox="0 0 1090 596"><defs><clipPath id="clip-path"><rect id="Rectangle_29799" data-name="Rectangle 29799" width="1090" height="592" rx="27" fill="#fcb85c"></rect></clipPath><clipPath id="clip-path-2"><rect id="abstract-13-light-background-wallpaper-colorful-gradient-blurry-soft-smooth-motion-bright-shine" width="1277" height="606" transform="translate(0.105 0.262)" fill="#fff"></rect></clipPath></defs><g id="Group_78259" data-name="Group 78259" transform="translate(-383 -2549)"><rect id="Rectangle_29798" data-name="Rectangle 29798" width="1090" height="596" rx="35" transform="translate(383 2549)" fill="#fcb85c"></rect><g id="Mask_Group_39424" data-name="Mask Group 39424" transform="translate(383 2549)" clip-path="url(#clip-path)"><g id="Mask_Group_39423" data-name="Mask Group 39423" transform="translate(-93.106 -14.262)" opacity="0.212" clip-path="url(#clip-path-2)" style="mix-blend-mode: overlay;isolation: isolate"><g id="Group_78258" data-name="Group 78258" transform="translate(0 0)"><circle id="Ellipse_10040" data-name="Ellipse 10040" cx="34" cy="34" r="34" transform="translate(0.105 0.262)" fill="#fff"></circle><ellipse id="Ellipse_10041" data-name="Ellipse 10041" cx="34" cy="33.5" rx="34" ry="33.5" transform="translate(0.105 68.262)" fill="#fff"></ellipse><circle id="Ellipse_10042" data-name="Ellipse 10042" cx="34" cy="34" r="34" transform="translate(0.105 135.262)" fill="#fff"></circle><circle id="Ellipse_10043" data-name="Ellipse 10043" cx="34" cy="34" r="34" transform="translate(0.105 203.262)" fill="#fff"></circle><circle id="Ellipse_10044" data-name="Ellipse 10044" cx="34" cy="34" r="34" transform="translate(0.105 271.262)" fill="#fff"></circle><ellipse id="Ellipse_10045" data-name="Ellipse 10045" cx="34" cy="33.5" rx="34" ry="33.5" transform="translate(0.105 339.262)" fill="#fff"></ellipse><ellipse id="Ellipse_10046" data-name="Ellipse 10046" cx="34" cy="34.5" rx="34" ry="34.5" transform="translate(0.105 406.262)" fill="#fff"></ellipse><ellipse id="Ellipse_10047" data-name="Ellipse 10047" cx="34" cy="33.5" rx="34" ry="33.5" transform="translate(0.105 475.262)" fill="#fff"></ellipse><ellipse id="Ellipse_10048" data-name="Ellipse 10048" cx="34" cy="33.5" rx="34" ry="33.5" transform="translate(0.105 542.262)" fill="#fff"></ellipse><ellipse id="Ellipse_10049" data-name="Ellipse 10049" cx="33.5" cy="34" rx="33.5" ry="34" transform="translate(68.105 0.262)" fill="#fff"></ellipse><circle id="Ellipse_10050" data-name="Ellipse 10050" cx="33.5" cy="33.5" r="33.5" transform="translate(68.105 68.262)" fill="#fff"></circle><ellipse id="Ellipse_10051" data-name="Ellipse 10051" cx="33.5" cy="34" rx="33.5" ry="34" transform="translate(68.105 135.262)" fill="#fff"></ellipse><ellipse id="Ellipse_10052" data-name="Ellipse 10052" cx="33.5" cy="34" rx="33.5" ry="34" transform="translate(68.105 203.262)" fill="#fff"></ellipse><ellipse id="Ellipse_10053" data-name="Ellipse 10053" cx="33.5" cy="34" rx="33.5" ry="34" transform="translate(68.105 271.262)" fill="#fff"></ellipse><circle id="Ellipse_10054" data-name="Ellipse 10054" cx="33.5" cy="33.5" r="33.5" transform="translate(68.105 339.262)" fill="#fff"></circle><ellipse id="Ellipse_10055" data-name="Ellipse 10055" cx="33.5" cy="34.5" rx="33.5" ry="34.5" transform="translate(68.105 406.262)" fill="#fff"></ellipse><circle id="Ellipse_10056" data-name="Ellipse 10056" cx="33.5" cy="33.5" r="33.5" transform="translate(68.105 475.262)" fill="#fff"></circle><circle id="Ellipse_10057" data-name="Ellipse 10057" cx="33.5" cy="33.5" r="33.5" transform="translate(68.105 542.262)" fill="#fff"></circle><circle id="Ellipse_10058" data-name="Ellipse 10058" cx="34" cy="34" r="34" transform="translate(135.105 0.262)" fill="#fff"></circle><ellipse id="Ellipse_10059" data-name="Ellipse 10059" cx="34" cy="33.5" rx="34" ry="33.5" transform="translate(135.105 68.262)" fill="#fff"></ellipse><circle id="Ellipse_10060" data-name="Ellipse 10060" cx="34" cy="34" r="34" transform="translate(135.105 135.262)" fill="#fff"></circle><circle id="Ellipse_10061" data-name="Ellipse 10061" cx="34" cy="34" r="34" transform="translate(135.105 203.262)" fill="#fff"></circle><circle id="Ellipse_10062" data-name="Ellipse 10062" cx="34" cy="34" r="34" transform="translate(135.105 271.262)" fill="#fff"></circle><ellipse id="Ellipse_10063" data-name="Ellipse 10063" cx="34" cy="33.5" rx="34" ry="33.5" transform="translate(135.105 339.262)" fill="#fff"></ellipse><ellipse id="Ellipse_10064" data-name="Ellipse 10064" cx="34" cy="34.5" rx="34" ry="34.5" transform="translate(135.105 406.262)" fill="#fff"></ellipse><ellipse id="Ellipse_10065" data-name="Ellipse 10065" cx="34" cy="33.5" rx="34" ry="33.5" transform="translate(135.105 475.262)" fill="#fff"></ellipse><ellipse id="Ellipse_10066" data-name="Ellipse 10066" cx="34" cy="33.5" rx="34" ry="33.5" transform="translate(135.105 542.262)" fill="#fff"></ellipse><circle id="Ellipse_10067" data-name="Ellipse 10067" cx="34" cy="34" r="34" transform="translate(203.105 0.262)" fill="#fff"></circle><ellipse id="Ellipse_10068" data-name="Ellipse 10068" cx="34" cy="33.5" rx="34" ry="33.5" transform="translate(203.105 68.262)" fill="#fff"></ellipse><circle id="Ellipse_10069" data-name="Ellipse 10069" cx="34" cy="34" r="34" transform="translate(203.105 135.262)" fill="#fff"></circle><circle id="Ellipse_10070" data-name="Ellipse 10070" cx="34" cy="34" r="34" transform="translate(203.105 203.262)" fill="#fff"></circle><circle id="Ellipse_10071" data-name="Ellipse 10071" cx="34" cy="34" r="34" transform="translate(203.105 271.262)" fill="#fff"></circle><ellipse id="Ellipse_10072" data-name="Ellipse 10072" cx="34" cy="33.5" rx="34" ry="33.5" transform="translate(203.105 339.262)" fill="#fff"></ellipse><ellipse id="Ellipse_10073" data-name="Ellipse 10073" cx="34" cy="34.5" rx="34" ry="34.5" transform="translate(203.105 406.262)" fill="#fff"></ellipse><ellipse id="Ellipse_10074" data-name="Ellipse 10074" cx="34" cy="33.5" rx="34" ry="33.5" transform="translate(203.105 475.262)" fill="#fff"></ellipse><ellipse id="Ellipse_10075" data-name="Ellipse 10075" cx="34" cy="33.5" rx="34" ry="33.5" transform="translate(203.105 542.262)" fill="#fff"></ellipse><circle id="Ellipse_10076" data-name="Ellipse 10076" cx="34" cy="34" r="34" transform="translate(271.105 0.262)" fill="#fff"></circle><ellipse id="Ellipse_10077" data-name="Ellipse 10077" cx="34" cy="33.5" rx="34" ry="33.5" transform="translate(271.105 68.262)" fill="#fff"></ellipse><circle id="Ellipse_10078" data-name="Ellipse 10078" cx="34" cy="34" r="34" transform="translate(271.105 135.262)" fill="#fff"></circle><circle id="Ellipse_10079" data-name="Ellipse 10079" cx="34" cy="34" r="34" transform="translate(271.105 203.262)" fill="#fff"></circle><circle id="Ellipse_10080" data-name="Ellipse 10080" cx="34" cy="34" r="34" transform="translate(271.105 271.262)" fill="#fff"></circle><ellipse id="Ellipse_10081" data-name="Ellipse 10081" cx="34" cy="33.5" rx="34" ry="33.5" transform="translate(271.105 339.262)" fill="#fff"></ellipse><ellipse id="Ellipse_10082" data-name="Ellipse 10082" cx="34" cy="34.5" rx="34" ry="34.5" transform="translate(271.105 406.262)" fill="#fff"></ellipse><ellipse id="Ellipse_10083" data-name="Ellipse 10083" cx="34" cy="33.5" rx="34" ry="33.5" transform="translate(271.105 475.262)" fill="#fff"></ellipse><ellipse id="Ellipse_10084" data-name="Ellipse 10084" cx="34" cy="33.5" rx="34" ry="33.5" transform="translate(271.105 542.262)" fill="#fff"></ellipse><ellipse id="Ellipse_10085" data-name="Ellipse 10085" cx="33.5" cy="34" rx="33.5" ry="34" transform="translate(339.105 0.262)" fill="#fff"></ellipse><circle id="Ellipse_10086" data-name="Ellipse 10086" cx="33.5" cy="33.5" r="33.5" transform="translate(339.105 68.262)" fill="#fff"></circle><ellipse id="Ellipse_10087" data-name="Ellipse 10087" cx="33.5" cy="34" rx="33.5" ry="34" transform="translate(339.105 135.262)" fill="#fff"></ellipse><ellipse id="Ellipse_10088" data-name="Ellipse 10088" cx="33.5" cy="34" rx="33.5" ry="34" transform="translate(339.105 203.262)" fill="#fff"></ellipse><ellipse id="Ellipse_10089" data-name="Ellipse 10089" cx="33.5" cy="34" rx="33.5" ry="34" transform="translate(339.105 271.262)" fill="#fff"></ellipse><circle id="Ellipse_10090" data-name="Ellipse 10090" cx="33.5" cy="33.5" r="33.5" transform="translate(339.105 339.262)" fill="#fff"></circle><ellipse id="Ellipse_10091" data-name="Ellipse 10091" cx="33.5" cy="34.5" rx="33.5" ry="34.5" transform="translate(339.105 406.262)" fill="#fff"></ellipse><circle id="Ellipse_10092" data-name="Ellipse 10092" cx="33.5" cy="33.5" r="33.5" transform="translate(339.105 475.262)" fill="#fff"></circle><circle id="Ellipse_10093" data-name="Ellipse 10093" cx="33.5" cy="33.5" r="33.5" transform="translate(339.105 542.262)" fill="#fff"></circle><ellipse id="Ellipse_10094" data-name="Ellipse 10094" cx="34.5" cy="34" rx="34.5" ry="34" transform="translate(406.105 0.262)" fill="#fff"></ellipse><ellipse id="Ellipse_10095" data-name="Ellipse 10095" cx="34.5" cy="33.5" rx="34.5" ry="33.5" transform="translate(406.105 68.262)" fill="#fff"></ellipse><ellipse id="Ellipse_10096" data-name="Ellipse 10096" cx="34.5" cy="34" rx="34.5" ry="34" transform="translate(406.105 135.262)" fill="#fff"></ellipse><ellipse id="Ellipse_10097" data-name="Ellipse 10097" cx="34.5" cy="34" rx="34.5" ry="34" transform="translate(406.105 203.262)" fill="#fff"></ellipse><ellipse id="Ellipse_10098" data-name="Ellipse 10098" cx="34.5" cy="34" rx="34.5" ry="34" transform="translate(406.105 271.262)" fill="#fff"></ellipse><ellipse id="Ellipse_10099" data-name="Ellipse 10099" cx="34.5" cy="33.5" rx="34.5" ry="33.5" transform="translate(406.105 339.262)" fill="#fff"></ellipse><circle id="Ellipse_10100" data-name="Ellipse 10100" cx="34.5" cy="34.5" r="34.5" transform="translate(406.105 406.262)" fill="#fff"></circle><ellipse id="Ellipse_10101" data-name="Ellipse 10101" cx="34.5" cy="33.5" rx="34.5" ry="33.5" transform="translate(406.105 475.262)" fill="#fff"></ellipse><ellipse id="Ellipse_10102" data-name="Ellipse 10102" cx="34.5" cy="33.5" rx="34.5" ry="33.5" transform="translate(406.105 542.262)" fill="#fff"></ellipse><ellipse id="Ellipse_10103" data-name="Ellipse 10103" cx="33.5" cy="34" rx="33.5" ry="34" transform="translate(475.105 0.262)" fill="#fff"></ellipse><ellipse id="Ellipse_10104" data-name="Ellipse 10104" cx="33.5" cy="34" rx="33.5" ry="34" transform="translate(542.105 0.262)" fill="#fff"></ellipse><ellipse id="Ellipse_10105" data-name="Ellipse 10105" cx="33.5" cy="34" rx="33.5" ry="34" transform="translate(609.105 0.262)" fill="#fff"></ellipse><ellipse id="Ellipse_10106" data-name="Ellipse 10106" cx="33.5" cy="34" rx="33.5" ry="34" transform="translate(676.105 0.262)" fill="#fff"></ellipse><circle id="Ellipse_10107" data-name="Ellipse 10107" cx="34" cy="34" r="34" transform="translate(743.105 0.262)" fill="#fff"></circle><ellipse id="Ellipse_10108" data-name="Ellipse 10108" cx="33.5" cy="34" rx="33.5" ry="34" transform="translate(811.105 0.262)" fill="#fff"></ellipse><circle id="Ellipse_10109" data-name="Ellipse 10109" cx="34" cy="34" r="34" transform="translate(878.105 0.262)" fill="#fff"></circle><ellipse id="Ellipse_10110" data-name="Ellipse 10110" cx="33.5" cy="34" rx="33.5" ry="34" transform="translate(946.105 0.262)" fill="#fff"></ellipse><circle id="Ellipse_10111" data-name="Ellipse 10111" cx="34" cy="34" r="34" transform="translate(1013.105 0.262)" fill="#fff"></circle><ellipse id="Ellipse_10112" data-name="Ellipse 10112" cx="33.5" cy="34" rx="33.5" ry="34" transform="translate(1081.105 0.262)" fill="#fff"></ellipse><circle id="Ellipse_10113" data-name="Ellipse 10113" cx="34" cy="34" r="34" transform="translate(1142.105 0.262)" fill="#fff"></circle><ellipse id="Ellipse_10114" data-name="Ellipse 10114" cx="33.5" cy="34" rx="33.5" ry="34" transform="translate(1210.105 0.262)" fill="#fff"></ellipse><circle id="Ellipse_10115" data-name="Ellipse 10115" cx="33.5" cy="33.5" r="33.5" transform="translate(475.105 68.262)" fill="#fff"></circle><circle id="Ellipse_10116" data-name="Ellipse 10116" cx="33.5" cy="33.5" r="33.5" transform="translate(542.105 68.262)" fill="#fff"></circle><circle id="Ellipse_10117" data-name="Ellipse 10117" cx="33.5" cy="33.5" r="33.5" transform="translate(609.105 68.262)" fill="#fff"></circle><circle id="Ellipse_10118" data-name="Ellipse 10118" cx="33.5" cy="33.5" r="33.5" transform="translate(676.105 68.262)" fill="#fff"></circle><ellipse id="Ellipse_10119" data-name="Ellipse 10119" cx="34" cy="33.5" rx="34" ry="33.5" transform="translate(743.105 68.262)" fill="#fff"></ellipse><circle id="Ellipse_10120" data-name="Ellipse 10120" cx="33.5" cy="33.5" r="33.5" transform="translate(811.105 68.262)" fill="#fff"></circle><ellipse id="Ellipse_10121" data-name="Ellipse 10121" cx="34" cy="33.5" rx="34" ry="33.5" transform="translate(878.105 68.262)" fill="#fff"></ellipse><circle id="Ellipse_10122" data-name="Ellipse 10122" cx="33.5" cy="33.5" r="33.5" transform="translate(946.105 68.262)" fill="#fff"></circle><ellipse id="Ellipse_10123" data-name="Ellipse 10123" cx="34" cy="33.5" rx="34" ry="33.5" transform="translate(1013.105 68.262)" fill="#fff"></ellipse><circle id="Ellipse_10124" data-name="Ellipse 10124" cx="33.5" cy="33.5" r="33.5" transform="translate(1081.105 68.262)" fill="#fff"></circle><ellipse id="Ellipse_10125" data-name="Ellipse 10125" cx="34" cy="33.5" rx="34" ry="33.5" transform="translate(1142.105 68.262)" fill="#fff"></ellipse><circle id="Ellipse_10126" data-name="Ellipse 10126" cx="33.5" cy="33.5" r="33.5" transform="translate(1210.105 68.262)" fill="#fff"></circle><ellipse id="Ellipse_10127" data-name="Ellipse 10127" cx="33.5" cy="34" rx="33.5" ry="34" transform="translate(475.105 135.262)" fill="#fff"></ellipse><ellipse id="Ellipse_10128" data-name="Ellipse 10128" cx="33.5" cy="34" rx="33.5" ry="34" transform="translate(542.105 135.262)" fill="#fff"></ellipse><ellipse id="Ellipse_10129" data-name="Ellipse 10129" cx="33.5" cy="34" rx="33.5" ry="34" transform="translate(609.105 135.262)" fill="#fff"></ellipse><ellipse id="Ellipse_10130" data-name="Ellipse 10130" cx="33.5" cy="34" rx="33.5" ry="34" transform="translate(676.105 135.262)" fill="#fff"></ellipse><circle id="Ellipse_10131" data-name="Ellipse 10131" cx="34" cy="34" r="34" transform="translate(743.105 135.262)" fill="#fff"></circle><ellipse id="Ellipse_10132" data-name="Ellipse 10132" cx="33.5" cy="34" rx="33.5" ry="34" transform="translate(811.105 135.262)" fill="#fff"></ellipse><circle id="Ellipse_10133" data-name="Ellipse 10133" cx="34" cy="34" r="34" transform="translate(878.105 135.262)" fill="#fff"></circle><ellipse id="Ellipse_10134" data-name="Ellipse 10134" cx="33.5" cy="34" rx="33.5" ry="34" transform="translate(946.105 135.262)" fill="#fff"></ellipse><circle id="Ellipse_10135" data-name="Ellipse 10135" cx="34" cy="34" r="34" transform="translate(1013.105 135.262)" fill="#fff"></circle><ellipse id="Ellipse_10136" data-name="Ellipse 10136" cx="33.5" cy="34" rx="33.5" ry="34" transform="translate(1081.105 135.262)" fill="#fff"></ellipse><circle id="Ellipse_10137" data-name="Ellipse 10137" cx="34" cy="34" r="34" transform="translate(1142.105 135.262)" fill="#fff"></circle><ellipse id="Ellipse_10138" data-name="Ellipse 10138" cx="33.5" cy="34" rx="33.5" ry="34" transform="translate(1210.105 135.262)" fill="#fff"></ellipse><ellipse id="Ellipse_10139" data-name="Ellipse 10139" cx="33.5" cy="34" rx="33.5" ry="34" transform="translate(475.105 203.262)" fill="#fff"></ellipse><ellipse id="Ellipse_10140" data-name="Ellipse 10140" cx="33.5" cy="34" rx="33.5" ry="34" transform="translate(542.105 203.262)" fill="#fff"></ellipse><ellipse id="Ellipse_10141" data-name="Ellipse 10141" cx="33.5" cy="34" rx="33.5" ry="34" transform="translate(609.105 203.262)" fill="#fff"></ellipse><ellipse id="Ellipse_10142" data-name="Ellipse 10142" cx="33.5" cy="34" rx="33.5" ry="34" transform="translate(676.105 203.262)" fill="#fff"></ellipse><circle id="Ellipse_10143" data-name="Ellipse 10143" cx="34" cy="34" r="34" transform="translate(743.105 203.262)" fill="#fff"></circle><ellipse id="Ellipse_10144" data-name="Ellipse 10144" cx="33.5" cy="34" rx="33.5" ry="34" transform="translate(811.105 203.262)" fill="#fff"></ellipse><circle id="Ellipse_10145" data-name="Ellipse 10145" cx="34" cy="34" r="34" transform="translate(878.105 203.262)" fill="#fff"></circle><ellipse id="Ellipse_10146" data-name="Ellipse 10146" cx="33.5" cy="34" rx="33.5" ry="34" transform="translate(946.105 203.262)" fill="#fff"></ellipse><circle id="Ellipse_10147" data-name="Ellipse 10147" cx="34" cy="34" r="34" transform="translate(1013.105 203.262)" fill="#fff"></circle><ellipse id="Ellipse_10148" data-name="Ellipse 10148" cx="33.5" cy="34" rx="33.5" ry="34" transform="translate(1081.105 203.262)" fill="#fff"></ellipse><circle id="Ellipse_10149" data-name="Ellipse 10149" cx="34" cy="34" r="34" transform="translate(1142.105 203.262)" fill="#fff"></circle><ellipse id="Ellipse_10150" data-name="Ellipse 10150" cx="33.5" cy="34" rx="33.5" ry="34" transform="translate(1210.105 203.262)" fill="#fff"></ellipse><ellipse id="Ellipse_10151" data-name="Ellipse 10151" cx="33.5" cy="34" rx="33.5" ry="34" transform="translate(475.105 271.262)" fill="#fff"></ellipse><ellipse id="Ellipse_10152" data-name="Ellipse 10152" cx="33.5" cy="34" rx="33.5" ry="34" transform="translate(542.105 271.262)" fill="#fff"></ellipse><ellipse id="Ellipse_10153" data-name="Ellipse 10153" cx="33.5" cy="34" rx="33.5" ry="34" transform="translate(609.105 271.262)" fill="#fff"></ellipse><ellipse id="Ellipse_10154" data-name="Ellipse 10154" cx="33.5" cy="34" rx="33.5" ry="34" transform="translate(676.105 271.262)" fill="#fff"></ellipse><circle id="Ellipse_10155" data-name="Ellipse 10155" cx="34" cy="34" r="34" transform="translate(743.105 271.262)" fill="#fff"></circle><ellipse id="Ellipse_10156" data-name="Ellipse 10156" cx="33.5" cy="34" rx="33.5" ry="34" transform="translate(811.105 271.262)" fill="#fff"></ellipse><circle id="Ellipse_10157" data-name="Ellipse 10157" cx="34" cy="34" r="34" transform="translate(878.105 271.262)" fill="#fff"></circle><ellipse id="Ellipse_10158" data-name="Ellipse 10158" cx="33.5" cy="34" rx="33.5" ry="34" transform="translate(946.105 271.262)" fill="#fff"></ellipse><circle id="Ellipse_10159" data-name="Ellipse 10159" cx="34" cy="34" r="34" transform="translate(1013.105 271.262)" fill="#fff"></circle><ellipse id="Ellipse_10160" data-name="Ellipse 10160" cx="33.5" cy="34" rx="33.5" ry="34" transform="translate(1081.105 271.262)" fill="#fff"></ellipse><circle id="Ellipse_10161" data-name="Ellipse 10161" cx="34" cy="34" r="34" transform="translate(1142.105 271.262)" fill="#fff"></circle><ellipse id="Ellipse_10162" data-name="Ellipse 10162" cx="33.5" cy="34" rx="33.5" ry="34" transform="translate(1210.105 271.262)" fill="#fff"></ellipse><circle id="Ellipse_10163" data-name="Ellipse 10163" cx="33.5" cy="33.5" r="33.5" transform="translate(475.105 339.262)" fill="#fff"></circle><circle id="Ellipse_10164" data-name="Ellipse 10164" cx="33.5" cy="33.5" r="33.5" transform="translate(542.105 339.262)" fill="#fff"></circle><circle id="Ellipse_10165" data-name="Ellipse 10165" cx="33.5" cy="33.5" r="33.5" transform="translate(609.105 339.262)" fill="#fff"></circle><circle id="Ellipse_10166" data-name="Ellipse 10166" cx="33.5" cy="33.5" r="33.5" transform="translate(676.105 339.262)" fill="#fff"></circle><ellipse id="Ellipse_10167" data-name="Ellipse 10167" cx="34" cy="33.5" rx="34" ry="33.5" transform="translate(743.105 339.262)" fill="#fff"></ellipse><circle id="Ellipse_10168" data-name="Ellipse 10168" cx="33.5" cy="33.5" r="33.5" transform="translate(811.105 339.262)" fill="#fff"></circle><ellipse id="Ellipse_10169" data-name="Ellipse 10169" cx="34" cy="33.5" rx="34" ry="33.5" transform="translate(878.105 339.262)" fill="#fff"></ellipse><circle id="Ellipse_10170" data-name="Ellipse 10170" cx="33.5" cy="33.5" r="33.5" transform="translate(946.105 339.262)" fill="#fff"></circle><ellipse id="Ellipse_10171" data-name="Ellipse 10171" cx="34" cy="33.5" rx="34" ry="33.5" transform="translate(1013.105 339.262)" fill="#fff"></ellipse><circle id="Ellipse_10172" data-name="Ellipse 10172" cx="33.5" cy="33.5" r="33.5" transform="translate(1081.105 339.262)" fill="#fff"></circle><ellipse id="Ellipse_10173" data-name="Ellipse 10173" cx="34" cy="33.5" rx="34" ry="33.5" transform="translate(1142.105 339.262)" fill="#fff"></ellipse><circle id="Ellipse_10174" data-name="Ellipse 10174" cx="33.5" cy="33.5" r="33.5" transform="translate(1210.105 339.262)" fill="#fff"></circle><ellipse id="Ellipse_10175" data-name="Ellipse 10175" cx="33.5" cy="34.5" rx="33.5" ry="34.5" transform="translate(475.105 406.262)" fill="#fff"></ellipse><ellipse id="Ellipse_10176" data-name="Ellipse 10176" cx="33.5" cy="34.5" rx="33.5" ry="34.5" transform="translate(542.105 406.262)" fill="#fff"></ellipse><circle id="Ellipse_10177" data-name="Ellipse 10177" cx="33.5" cy="33.5" r="33.5" transform="translate(542.105 475.262)" fill="#fff"></circle><ellipse id="Ellipse_10178" data-name="Ellipse 10178" cx="33.5" cy="34" rx="33.5" ry="34" transform="translate(542.105 542.262)" fill="#fff"></ellipse><ellipse id="Ellipse_10179" data-name="Ellipse 10179" cx="33.5" cy="34.5" rx="33.5" ry="34.5" transform="translate(609.105 406.262)" fill="#fff"></ellipse><circle id="Ellipse_10180" data-name="Ellipse 10180" cx="33.5" cy="33.5" r="33.5" transform="translate(609.105 475.262)" fill="#fff"></circle><ellipse id="Ellipse_10181" data-name="Ellipse 10181" cx="33.5" cy="34" rx="33.5" ry="34" transform="translate(609.105 542.262)" fill="#fff"></ellipse><ellipse id="Ellipse_10182" data-name="Ellipse 10182" cx="33.5" cy="34.5" rx="33.5" ry="34.5" transform="translate(676.105 406.262)" fill="#fff"></ellipse><circle id="Ellipse_10183" data-name="Ellipse 10183" cx="33.5" cy="33.5" r="33.5" transform="translate(676.105 475.262)" fill="#fff"></circle><ellipse id="Ellipse_10184" data-name="Ellipse 10184" cx="33.5" cy="34" rx="33.5" ry="34" transform="translate(676.105 542.262)" fill="#fff"></ellipse><ellipse id="Ellipse_10185" data-name="Ellipse 10185" cx="34" cy="34.5" rx="34" ry="34.5" transform="translate(743.105 406.262)" fill="#fff"></ellipse><ellipse id="Ellipse_10186" data-name="Ellipse 10186" cx="34" cy="33.5" rx="34" ry="33.5" transform="translate(743.105 475.262)" fill="#fff"></ellipse><circle id="Ellipse_10187" data-name="Ellipse 10187" cx="34" cy="34" r="34" transform="translate(743.105 542.262)" fill="#fff"></circle><ellipse id="Ellipse_10188" data-name="Ellipse 10188" cx="33.5" cy="34.5" rx="33.5" ry="34.5" transform="translate(811.105 406.262)" fill="#fff"></ellipse><circle id="Ellipse_10189" data-name="Ellipse 10189" cx="33.5" cy="33.5" r="33.5" transform="translate(811.105 475.262)" fill="#fff"></circle><ellipse id="Ellipse_10190" data-name="Ellipse 10190" cx="33.5" cy="34" rx="33.5" ry="34" transform="translate(811.105 542.262)" fill="#fff"></ellipse><ellipse id="Ellipse_10191" data-name="Ellipse 10191" cx="34" cy="34.5" rx="34" ry="34.5" transform="translate(878.105 406.262)" fill="#fff"></ellipse><ellipse id="Ellipse_10192" data-name="Ellipse 10192" cx="34" cy="33.5" rx="34" ry="33.5" transform="translate(878.105 475.262)" fill="#fff"></ellipse><circle id="Ellipse_10193" data-name="Ellipse 10193" cx="34" cy="34" r="34" transform="translate(878.105 542.262)" fill="#fff"></circle><ellipse id="Ellipse_10194" data-name="Ellipse 10194" cx="33.5" cy="34.5" rx="33.5" ry="34.5" transform="translate(946.105 406.262)" fill="#fff"></ellipse><circle id="Ellipse_10195" data-name="Ellipse 10195" cx="33.5" cy="33.5" r="33.5" transform="translate(946.105 475.262)" fill="#fff"></circle><ellipse id="Ellipse_10196" data-name="Ellipse 10196" cx="33.5" cy="34" rx="33.5" ry="34" transform="translate(946.105 542.262)" fill="#fff"></ellipse><ellipse id="Ellipse_10197" data-name="Ellipse 10197" cx="34" cy="34.5" rx="34" ry="34.5" transform="translate(1013.105 406.262)" fill="#fff"></ellipse><ellipse id="Ellipse_10198" data-name="Ellipse 10198" cx="34" cy="33.5" rx="34" ry="33.5" transform="translate(1013.105 475.262)" fill="#fff"></ellipse><circle id="Ellipse_10199" data-name="Ellipse 10199" cx="34" cy="34" r="34" transform="translate(1013.105 542.262)" fill="#fff"></circle><ellipse id="Ellipse_10200" data-name="Ellipse 10200" cx="33.5" cy="34.5" rx="33.5" ry="34.5" transform="translate(1081.105 406.262)" fill="#fff"></ellipse><circle id="Ellipse_10201" data-name="Ellipse 10201" cx="33.5" cy="33.5" r="33.5" transform="translate(1081.105 475.262)" fill="#fff"></circle><ellipse id="Ellipse_10202" data-name="Ellipse 10202" cx="33.5" cy="34" rx="33.5" ry="34" transform="translate(1081.105 542.262)" fill="#fff"></ellipse><ellipse id="Ellipse_10203" data-name="Ellipse 10203" cx="34" cy="34.5" rx="34" ry="34.5" transform="translate(1142.105 406.262)" fill="#fff"></ellipse><ellipse id="Ellipse_10204" data-name="Ellipse 10204" cx="34" cy="33.5" rx="34" ry="33.5" transform="translate(1142.105 475.262)" fill="#fff"></ellipse><circle id="Ellipse_10205" data-name="Ellipse 10205" cx="34" cy="34" r="34" transform="translate(1142.105 542.262)" fill="#fff"></circle><ellipse id="Ellipse_10206" data-name="Ellipse 10206" cx="33.5" cy="34.5" rx="33.5" ry="34.5" transform="translate(1210.105 406.262)" fill="#fff"></ellipse><circle id="Ellipse_10207" data-name="Ellipse 10207" cx="33.5" cy="33.5" r="33.5" transform="translate(1210.105 475.262)" fill="#fff"></circle><ellipse id="Ellipse_10208" data-name="Ellipse 10208" cx="33.5" cy="34" rx="33.5" ry="34" transform="translate(1210.105 542.262)" fill="#fff"></ellipse><circle id="Ellipse_10209" data-name="Ellipse 10209" cx="33.5" cy="33.5" r="33.5" transform="translate(475.105 475.262)" fill="#fff"></circle><circle id="Ellipse_10210" data-name="Ellipse 10210" cx="33.5" cy="33.5" r="33.5" transform="translate(475.105 542.262)" fill="#fff"></circle></g></g></g></g></svg>