<svg xmlns="http://www.w3.org/2000/svg" xmlns:xlink="http://www.w3.org/1999/xlink" width="134.737" height="35.716" viewBox="0 0 134.737 35.716">
  <defs>
    <linearGradient id="linear-gradient" x1="0.5" x2="0.5" y2="1" gradientUnits="objectBoundingBox">
      <stop offset="0" stop-color="#7e0f43"/>
      <stop offset="1" stop-color="#bc0058"/>
    </linearGradient>
    <clipPath id="clip-path">
      <rect id="Rectangle_22973" data-name="Rectangle 22973" width="134.737" height="35.716" transform="translate(5 5)" fill="url(#linear-gradient)"/>
    </clipPath>
    <clipPath id="clip-path-2">
      <rect id="Rectangle_22972" data-name="Rectangle 22972" width="178.678" height="67.465" fill="url(#linear-gradient)"/>
    </clipPath>
    <clipPath id="clip-path-3">
      <rect id="Rectangle_22971" data-name="Rectangle 22971" width="29.235" height="32.117" fill="url(#linear-gradient)"/>
    </clipPath>
  </defs>
  <g id="Group_78244" data-name="Group 78244" transform="translate(-5 -5)">
    <g id="Group_67255" data-name="Group 67255" transform="translate(0 0)" clip-path="url(#clip-path)">
      <g id="Group_67254" data-name="Group 67254" transform="translate(-37.583 -4.429)">
        <g id="Group_67253" data-name="Group 67253" clip-path="url(#clip-path-2)">
          <g id="Group_67252" data-name="Group 67252" transform="translate(43.593 11.41)" opacity="0.82">
            <g id="Group_67251" data-name="Group 67251" transform="translate(0 0)">
              <g id="Group_67250" data-name="Group 67250" clip-path="url(#clip-path-3)">
                <path id="Path_154256" data-name="Path 154256" d="M0,31.9s24.177,4.1,28.8-23.674S0,31.9,0,31.9" transform="translate(0 0)" fill="url(#linear-gradient)"/>
              </g>
            </g>
          </g>
          <path id="Path_154257" data-name="Path 154257" d="M0,38.239S16.744,35.9,14.375,16.555,0,38.239,0,38.239" transform="translate(43.593 5.081)" fill="url(#linear-gradient)"/>
          <path id="Path_154258" data-name="Path 154258" d="M83.582,44.747V29.673a.783.783,0,0,1,.782-.783h1.7a.783.783,0,0,1,.782.783V44.747a.782.782,0,0,1-.782.782h-1.7a.782.782,0,0,1-.782-.782" transform="translate(-5.755 -7.277)" fill="url(#linear-gradient)"/>
          <path id="Path_154259" data-name="Path 154259" d="M94.407,29.345a1.615,1.615,0,0,1-.135.587l-1.139,2.99a.782.782,0,0,1-.731.5h-.494a.782.782,0,0,1-.732-1.059l.275-.728a.792.792,0,0,0-.223-.869,2.115,2.115,0,0,1-.745-1.426,1.979,1.979,0,0,1,3.923,0" transform="translate(-6.23 -7.19)" fill="url(#linear-gradient)"/>
          <path id="Path_154260" data-name="Path 154260" d="M116.1,29.7V44.772a.782.782,0,0,1-.782.782h-1.7a.782.782,0,0,1-.783-.782V37.358a.782.782,0,0,0-1.441-.421c-.9,1.423-2.037,3.213-3.242,5.119a.784.784,0,0,1-.662.365h-.761a.781.781,0,0,1-.661-.365L102.8,36.885a.782.782,0,0,0-1.443.417v7.471a.782.782,0,0,1-.784.782h-1.7a.782.782,0,0,1-.781-.782V29.7a.782.782,0,0,1,.781-.782h2.1a.784.784,0,0,1,.662.365l4.811,7.627a.782.782,0,0,0,1.323,0l4.813-7.627a.784.784,0,0,1,.662-.365h2.078a.782.782,0,0,1,.782.782" transform="translate(-6.754 -7.278)" fill="url(#linear-gradient)"/>
          <path id="Path_154261" data-name="Path 154261" d="M131.539,33.414c.18,1.962,7.125,1.872,9.357,4.329a4.577,4.577,0,0,1,1.195,3.066,4.014,4.014,0,0,1-.18,1.263c-.564,2.007-2.639,3.066-4.487,3.405a8.933,8.933,0,0,1-1.872.18,12.655,12.655,0,0,1-4.577-.924,21.149,21.149,0,0,1-2.935-1.643.785.785,0,0,1-.195-1.075l.938-1.389a.787.787,0,0,1,1.15-.161,10.454,10.454,0,0,0,6.137,2.216c1.6,0,2.616-.428,2.773-1.826v-.022c0-2.842-5.636-1.984-8.815-4.217a4.174,4.174,0,0,1-1.827-3.382,3.455,3.455,0,0,1,.158-1.06c.519-1.848,2.48-2.93,4.194-3.247a13.375,13.375,0,0,1,6.973.931c.026.011.05.023.075.036a14.514,14.514,0,0,1,1.565.917.78.78,0,0,1,.189,1.065l-.771,1.157a.782.782,0,0,1-1.063.228,10.621,10.621,0,0,0-5.368-1.516c-1.646,0-2.616.361-2.616,1.466Z" transform="translate(-8.794 -7.268)" fill="url(#linear-gradient)"/>
          <path id="Path_154262" data-name="Path 154262" d="M153.083,29.415,158.9,44.49a.782.782,0,0,1-.73,1.064h-1.793a.782.782,0,0,1-.73-.5l-1.261-3.28a.782.782,0,0,0-.73-.5h-4.652a.783.783,0,0,0-.731.5l-1.26,3.28a.784.784,0,0,1-.731.5h-1.793a.783.783,0,0,1-.73-1.064l5.822-15.075a.782.782,0,0,1,.73-.5h2.038a.781.781,0,0,1,.73.5m-.4,7.928-.617-1.6a.783.783,0,0,0-1.46,0l-.618,1.6a.783.783,0,0,0,.73,1.064h1.236a.782.782,0,0,0,.73-1.064" transform="translate(-9.895 -7.278)" fill="url(#linear-gradient)"/>
          <path id="Path_154263" data-name="Path 154263" d="M165.031,35.655h6.056a.782.782,0,0,1,.782.782v1.277a.782.782,0,0,1-.782.782h-6.056a.782.782,0,0,0-.782.782v5.47a.782.782,0,0,1-.783.782h-1.7a.782.782,0,0,1-.782-.782V29.673a.782.782,0,0,1,.782-.782h10.5a.782.782,0,0,1,.782.782v1.3a.782.782,0,0,1-.782.782h-7.229a.782.782,0,0,0-.782.782v2.336a.782.782,0,0,0,.782.782" transform="translate(-11.084 -7.277)" fill="url(#linear-gradient)"/>
          <path id="Path_154264" data-name="Path 154264" d="M179.021,32.536v2.335a.782.782,0,0,0,.782.783h6.079a.783.783,0,0,1,.783.782v1.277a.783.783,0,0,1-.783.782H179.8a.782.782,0,0,0-.782.782v2.629a.783.783,0,0,0,.782.783h7.251a.783.783,0,0,1,.783.782v1.3a.783.783,0,0,1-.783.782H177.1v-.022h-.571a.783.783,0,0,1-.782-.783V29.673a.782.782,0,0,1,.782-.782h10.52a.783.783,0,0,1,.783.782v1.3a.783.783,0,0,1-.783.783H179.8a.782.782,0,0,0-.782.782" transform="translate(-12.101 -7.277)" fill="url(#linear-gradient)"/>
        </g>
      </g>
    </g>
  </g>
</svg>
