<?xml version="1.0" encoding="UTF-8"?>
<svg xmlns="http://www.w3.org/2000/svg" width="62.762" height="60.272" viewBox="0 0 62.762 60.272">
  <path id="Union_1" data-name="Union 1" d="M39.025,54.368c-2.474,3.71-5.536,5.9-8.851,5.9-2.795,0-5.41-1.559-7.644-4.272-2.234,2.712-4.849,4.272-7.644,4.272C6.665,60.272,0,46.779,0,30.136S6.665,0,14.886,0c2.795,0,5.41,1.559,7.644,4.271C24.765,1.559,27.379,0,30.174,0c3.315,0,6.377,2.193,8.851,5.9C41.5,2.193,44.561,0,47.876,0,56.1,0,62.762,13.492,62.762,30.136S56.1,60.272,47.876,60.272C44.561,60.272,41.5,58.078,39.025,54.368Z" fill="#fe7678"></path>
</svg>
